G04 #@! TF.GenerationSoftware,KiCad,Pcbnew,5.1.5-52549c5~84~ubuntu18.04.1*
G04 #@! TF.CreationDate,2020-01-31T14:03:47+00:00*
G04 #@! TF.ProjectId,BrocheDisco,42726f63-6865-4446-9973-636f2e6b6963,rev?*
G04 #@! TF.SameCoordinates,Original*
G04 #@! TF.FileFunction,Copper,L2,Bot*
G04 #@! TF.FilePolarity,Positive*
%FSLAX46Y46*%
G04 Gerber Fmt 4.6, Leading zero omitted, Abs format (unit mm)*
G04 Created by KiCad (PCBNEW 5.1.5-52549c5~84~ubuntu18.04.1) date 2020-01-31 14:03:47*
%MOMM*%
%LPD*%
G04 APERTURE LIST*
%ADD10R,1.600000X1.600000*%
%ADD11C,1.600000*%
%ADD12R,2.000000X2.000000*%
%ADD13C,2.000000*%
%ADD14C,2.340000*%
%ADD15C,1.800000*%
%ADD16R,1.800000X1.800000*%
%ADD17C,2.400000*%
%ADD18O,2.400000X2.400000*%
%ADD19R,1.998980X1.998980*%
%ADD20C,1.998980*%
%ADD21C,1.400000*%
%ADD22O,1.400000X1.400000*%
%ADD23R,1.600000X2.700000*%
%ADD24O,1.600000X2.700000*%
%ADD25R,1.350000X1.350000*%
%ADD26O,1.350000X1.350000*%
%ADD27R,2.400000X1.600000*%
%ADD28O,2.400000X1.600000*%
%ADD29C,1.000000*%
G04 APERTURE END LIST*
D10*
X180000000Y-103410000D03*
D11*
X180000000Y-101410000D03*
D12*
X141590000Y-94520000D03*
D13*
X141590000Y-91020000D03*
D14*
X180000000Y-90000000D03*
X177500000Y-92500000D03*
X175000000Y-90000000D03*
D15*
X155560000Y-54920000D03*
D16*
X153020000Y-54920000D03*
D10*
X169530000Y-85000000D03*
D11*
X169530000Y-83000000D03*
D17*
X179690000Y-75470000D03*
D18*
X179690000Y-55150000D03*
D19*
X144000000Y-105000000D03*
D20*
X144000000Y-101190000D03*
D14*
X151750000Y-95710000D03*
X154250000Y-93210000D03*
X151750000Y-90710000D03*
D13*
X161910000Y-97060000D03*
X166910000Y-97060000D03*
D16*
X159370000Y-54920000D03*
D15*
X161910000Y-54920000D03*
D11*
X155560000Y-104000000D03*
D10*
X155560000Y-106000000D03*
D21*
X122540000Y-53880000D03*
D22*
X130160000Y-53880000D03*
X133970000Y-79280000D03*
D21*
X126350000Y-79280000D03*
D23*
X150190000Y-64920000D03*
D24*
X152730000Y-64920000D03*
X155270000Y-64920000D03*
X157810000Y-64920000D03*
X160350000Y-64920000D03*
X162890000Y-64920000D03*
X165430000Y-64920000D03*
X167970000Y-64920000D03*
X170510000Y-64920000D03*
D18*
X142860000Y-81820000D03*
D17*
X163180000Y-81820000D03*
D16*
X146670000Y-54920000D03*
D15*
X149210000Y-54920000D03*
X168260000Y-54920000D03*
D16*
X165720000Y-54920000D03*
D25*
X141590000Y-55920000D03*
D26*
X141590000Y-53920000D03*
D22*
X132700000Y-102645000D03*
D21*
X125080000Y-102645000D03*
D16*
X172070000Y-54920000D03*
D15*
X174610000Y-54920000D03*
D27*
X133970000Y-74200000D03*
D28*
X126350000Y-66580000D03*
X133970000Y-71660000D03*
X126350000Y-69120000D03*
X133970000Y-69120000D03*
X126350000Y-71660000D03*
X133970000Y-66580000D03*
X126350000Y-74200000D03*
D21*
X142000000Y-71000000D03*
D22*
X142000000Y-63380000D03*
D29*
X141590000Y-53920000D02*
X143265000Y-53920000D01*
X143265000Y-53920000D02*
X143600400Y-54255400D01*
X143600400Y-54255400D02*
X143600400Y-61757700D01*
X143600400Y-61757700D02*
X156882200Y-75039500D01*
X156882200Y-75039500D02*
X161569500Y-75039500D01*
X161569500Y-75039500D02*
X169530000Y-83000000D01*
X142000000Y-71000000D02*
X161910000Y-90910000D01*
X161910000Y-90910000D02*
X161910000Y-97060000D01*
X144000000Y-104471600D02*
X136226600Y-104471600D01*
X136226600Y-104471600D02*
X134400000Y-102645000D01*
X141590000Y-91020000D02*
X145910700Y-95340700D01*
X145910700Y-95340700D02*
X145910700Y-102560900D01*
X145910700Y-102560900D02*
X144000000Y-104471600D01*
X144000000Y-105000000D02*
X144000000Y-104471600D01*
X132700000Y-102645000D02*
X134400000Y-102645000D01*
X142000000Y-63380000D02*
X142000000Y-61680000D01*
X142000000Y-61680000D02*
X141590000Y-61270000D01*
X141590000Y-61270000D02*
X141590000Y-55920000D01*
X155560000Y-101410000D02*
X155560000Y-104000000D01*
X151750000Y-95710000D02*
X155560000Y-99520000D01*
X155560000Y-99520000D02*
X155560000Y-101410000D01*
X155560000Y-101410000D02*
X180000000Y-101410000D01*
X133970000Y-74200000D02*
X133970000Y-75994700D01*
X133970000Y-75994700D02*
X151750000Y-93774700D01*
X151750000Y-93774700D02*
X151750000Y-95710000D01*
X150190000Y-64920000D02*
X150190000Y-62570000D01*
X150190000Y-62570000D02*
X146670000Y-59050000D01*
X146670000Y-59050000D02*
X146670000Y-54920000D01*
X153020000Y-54920000D02*
X153020000Y-56820000D01*
X152730000Y-64920000D02*
X152730000Y-57110000D01*
X152730000Y-57110000D02*
X153020000Y-56820000D01*
X159370000Y-54920000D02*
X159370000Y-56820000D01*
X155270000Y-64920000D02*
X155270000Y-60920000D01*
X155270000Y-60920000D02*
X159370000Y-56820000D01*
X165720000Y-54920000D02*
X163820000Y-54920000D01*
X157810000Y-64920000D02*
X157810000Y-62570000D01*
X157810000Y-62570000D02*
X163820000Y-56560000D01*
X163820000Y-56560000D02*
X163820000Y-54920000D01*
X172070000Y-54920000D02*
X170170000Y-54920000D01*
X162890000Y-64920000D02*
X162890000Y-62570000D01*
X162890000Y-62570000D02*
X163176900Y-62570000D01*
X163176900Y-62570000D02*
X170170000Y-55576900D01*
X170170000Y-55576900D02*
X170170000Y-54920000D01*
X126350000Y-74200000D02*
X124150000Y-74200000D01*
X124150000Y-74200000D02*
X124150000Y-77080000D01*
X124150000Y-77080000D02*
X126350000Y-79280000D01*
X126350000Y-79280000D02*
X126350000Y-83540000D01*
X126350000Y-83540000D02*
X144000000Y-101190000D01*
X170510000Y-64920000D02*
X170510000Y-67270000D01*
X170510000Y-67270000D02*
X171490000Y-67270000D01*
X171490000Y-67270000D02*
X179690000Y-75470000D01*
X142860000Y-81085800D02*
X151749900Y-89975700D01*
X151749900Y-89975700D02*
X151750000Y-89975700D01*
X151750000Y-89975700D02*
X151750000Y-90710000D01*
X142860000Y-81085800D02*
X142860000Y-79620000D01*
X142860000Y-81820000D02*
X142860000Y-81085800D01*
X133970000Y-71660000D02*
X136170000Y-71660000D01*
X136170000Y-71660000D02*
X136170000Y-72930000D01*
X136170000Y-72930000D02*
X142860000Y-79620000D01*
M02*
