M48
; DRILL file {KiCad 5.1.5-52549c5~84~ubuntu18.04.1} date Fri 31 Jan 2020 02:05:09 PM WET
; FORMAT={-:-/ absolute / inch / decimal}
; #@! TF.CreationDate,2020-01-31T14:05:09+00:00
; #@! TF.GenerationSoftware,Kicad,Pcbnew,5.1.5-52549c5~84~ubuntu18.04.1
; #@! TF.FileFunction,Plated,1,2,PTH
FMAT,2
INCH
T1C0.0276
T2C0.0315
T3C0.0315
T4C0.0354
T5C0.0394
T6C0.0472
T7C0.0512
%
G90
G05
T1
X4.9244Y-4.0411
X4.8244Y-2.1213
X5.1244Y-2.1213
X4.9744Y-3.1213
X5.2744Y-3.1213
X5.5906Y-2.4953
X5.5906Y-2.7953
X5.2244Y-4.0411
T2
X5.5744Y-2.1228
X5.5744Y-2.2016
X4.9744Y-2.6213
X4.9744Y-2.7213
X4.9744Y-2.8213
X4.9744Y-2.9213
X5.2744Y-2.6213
X5.2744Y-2.7213
X5.2744Y-2.8213
X5.2744Y-2.9213
X6.6744Y-3.2677
X6.6744Y-3.3465
X7.0866Y-3.9925
X7.0866Y-4.0713
X6.1244Y-4.0945
X6.1244Y-4.1732
T3
X5.6693Y-3.9839
X5.6693Y-4.1339
T4
X6.7744Y-2.1622
X6.8744Y-2.1622
X6.5244Y-2.1622
X6.6244Y-2.1622
X6.0244Y-2.1622
X6.1244Y-2.1622
X6.2744Y-2.1622
X6.3744Y-2.1622
X5.7744Y-2.1622
X5.8744Y-2.1622
T5
X5.5744Y-3.5835
X5.5744Y-3.7213
X5.913Y-2.5559
X6.013Y-2.5559
X6.113Y-2.5559
X6.213Y-2.5559
X6.313Y-2.5559
X6.413Y-2.5559
X6.513Y-2.5559
X6.613Y-2.5559
X6.713Y-2.5559
X6.3744Y-3.8213
X6.5713Y-3.8213
T6
X7.0744Y-2.1713
X7.0744Y-2.9713
X5.6244Y-3.2213
X6.4244Y-3.2213
T7
X5.9744Y-3.5713
X5.9744Y-3.7681
X6.0728Y-3.6697
X6.8898Y-3.5433
X6.9882Y-3.6417
X7.0866Y-3.5433
T0
M30
