G04 #@! TF.GenerationSoftware,KiCad,Pcbnew,5.1.5-52549c5~84~ubuntu18.04.1*
G04 #@! TF.CreationDate,2020-01-31T14:03:47+00:00*
G04 #@! TF.ProjectId,BrocheDisco,42726f63-6865-4446-9973-636f2e6b6963,rev?*
G04 #@! TF.SameCoordinates,Original*
G04 #@! TF.FileFunction,Copper,L1,Top*
G04 #@! TF.FilePolarity,Positive*
%FSLAX46Y46*%
G04 Gerber Fmt 4.6, Leading zero omitted, Abs format (unit mm)*
G04 Created by KiCad (PCBNEW 5.1.5-52549c5~84~ubuntu18.04.1) date 2020-01-31 14:03:47*
%MOMM*%
%LPD*%
G04 APERTURE LIST*
%ADD10R,1.600000X1.600000*%
%ADD11C,1.600000*%
%ADD12R,2.000000X2.000000*%
%ADD13C,2.000000*%
%ADD14C,2.340000*%
%ADD15C,1.800000*%
%ADD16R,1.800000X1.800000*%
%ADD17C,2.400000*%
%ADD18O,2.400000X2.400000*%
%ADD19R,1.998980X1.998980*%
%ADD20C,1.998980*%
%ADD21C,1.400000*%
%ADD22O,1.400000X1.400000*%
%ADD23R,1.600000X2.700000*%
%ADD24O,1.600000X2.700000*%
%ADD25R,1.350000X1.350000*%
%ADD26O,1.350000X1.350000*%
%ADD27R,2.400000X1.600000*%
%ADD28O,2.400000X1.600000*%
%ADD29C,1.000000*%
G04 APERTURE END LIST*
D10*
X180000000Y-103410000D03*
D11*
X180000000Y-101410000D03*
D12*
X141590000Y-94520000D03*
D13*
X141590000Y-91020000D03*
D14*
X180000000Y-90000000D03*
X177500000Y-92500000D03*
X175000000Y-90000000D03*
D15*
X155560000Y-54920000D03*
D16*
X153020000Y-54920000D03*
D10*
X169530000Y-85000000D03*
D11*
X169530000Y-83000000D03*
D17*
X179690000Y-75470000D03*
D18*
X179690000Y-55150000D03*
D19*
X144000000Y-105000000D03*
D20*
X144000000Y-101190000D03*
D14*
X151750000Y-95710000D03*
X154250000Y-93210000D03*
X151750000Y-90710000D03*
D13*
X161910000Y-97060000D03*
X166910000Y-97060000D03*
D16*
X159370000Y-54920000D03*
D15*
X161910000Y-54920000D03*
D11*
X155560000Y-104000000D03*
D10*
X155560000Y-106000000D03*
D21*
X122540000Y-53880000D03*
D22*
X130160000Y-53880000D03*
X133970000Y-79280000D03*
D21*
X126350000Y-79280000D03*
D23*
X150190000Y-64920000D03*
D24*
X152730000Y-64920000D03*
X155270000Y-64920000D03*
X157810000Y-64920000D03*
X160350000Y-64920000D03*
X162890000Y-64920000D03*
X165430000Y-64920000D03*
X167970000Y-64920000D03*
X170510000Y-64920000D03*
D18*
X142860000Y-81820000D03*
D17*
X163180000Y-81820000D03*
D16*
X146670000Y-54920000D03*
D15*
X149210000Y-54920000D03*
X168260000Y-54920000D03*
D16*
X165720000Y-54920000D03*
D25*
X141590000Y-55920000D03*
D26*
X141590000Y-53920000D03*
D22*
X132700000Y-102645000D03*
D21*
X125080000Y-102645000D03*
D16*
X172070000Y-54920000D03*
D15*
X174610000Y-54920000D03*
D27*
X133970000Y-74200000D03*
D28*
X126350000Y-66580000D03*
X133970000Y-71660000D03*
X126350000Y-69120000D03*
X133970000Y-69120000D03*
X126350000Y-71660000D03*
X133970000Y-66580000D03*
X126350000Y-74200000D03*
D21*
X142000000Y-71000000D03*
D22*
X142000000Y-63380000D03*
D29*
X163180000Y-81820000D02*
X166360000Y-85000000D01*
X166360000Y-85000000D02*
X169530000Y-85000000D01*
X130160000Y-53880000D02*
X131860000Y-53880000D01*
X141590000Y-53920000D02*
X131900000Y-53920000D01*
X131900000Y-53920000D02*
X131860000Y-53880000D01*
X139300000Y-72250000D02*
X133970000Y-77580000D01*
X142000000Y-71000000D02*
X140550000Y-71000000D01*
X140550000Y-71000000D02*
X139300000Y-72250000D01*
X136170000Y-69120000D02*
X139300000Y-72250000D01*
X133970000Y-69120000D02*
X136170000Y-69120000D01*
X133970000Y-79280000D02*
X133970000Y-77580000D01*
X144999300Y-64929000D02*
X144999300Y-87610700D01*
X144999300Y-87610700D02*
X141590000Y-91020000D01*
X143300100Y-63380000D02*
X143450300Y-63380000D01*
X143450300Y-63380000D02*
X144999300Y-64929000D01*
X144999300Y-64929000D02*
X147358300Y-62570000D01*
X147358300Y-62570000D02*
X160350000Y-62570000D01*
X160350000Y-64920000D02*
X160350000Y-62570000D01*
X142000000Y-63380000D02*
X143300100Y-63380000D01*
X133970000Y-66580000D02*
X136170000Y-66580000D01*
X136170000Y-66580000D02*
X139370000Y-63380000D01*
X139370000Y-63380000D02*
X142000000Y-63380000D01*
X144000000Y-105000000D02*
X145999500Y-105000000D01*
X166910000Y-97060000D02*
X164313100Y-99656900D01*
X164313100Y-99656900D02*
X151342600Y-99656900D01*
X151342600Y-99656900D02*
X145999500Y-105000000D01*
X175000000Y-90000000D02*
X173970000Y-90000000D01*
X173970000Y-90000000D02*
X166910000Y-97060000D01*
X154250000Y-93210000D02*
X151750000Y-95710000D01*
X178299600Y-103410000D02*
X178299600Y-99846400D01*
X178299600Y-99846400D02*
X180000000Y-98146000D01*
X180000000Y-98146000D02*
X180000000Y-90000000D01*
X178299600Y-103410000D02*
X178200000Y-103410000D01*
X178600000Y-103410000D02*
X178299600Y-103410000D01*
X180000000Y-103410000D02*
X178600000Y-103410000D01*
X155560000Y-106000000D02*
X175610000Y-106000000D01*
X175610000Y-106000000D02*
X178200000Y-103410000D01*
X125080000Y-102645000D02*
X133205000Y-94520000D01*
X133205000Y-94520000D02*
X141590000Y-94520000D01*
X165430000Y-64920000D02*
X165430000Y-70680000D01*
X165430000Y-70680000D02*
X141590000Y-94520000D01*
X174610000Y-55150000D02*
X174610000Y-55499700D01*
X174610000Y-55499700D02*
X173389300Y-56720400D01*
X173389300Y-56720400D02*
X169510400Y-56720400D01*
X169510400Y-56720400D02*
X168260000Y-55470000D01*
X174610000Y-54920000D02*
X174610000Y-55150000D01*
X174610000Y-55150000D02*
X177490000Y-55150000D01*
X179690000Y-55150000D02*
X177490000Y-55150000D01*
X168260000Y-55470000D02*
X168260000Y-54920000D01*
X161910000Y-55482700D02*
X163147700Y-56720400D01*
X163147700Y-56720400D02*
X167009600Y-56720400D01*
X167009600Y-56720400D02*
X168260000Y-55470000D01*
X155835000Y-55195000D02*
X155560000Y-54920000D01*
X161910000Y-55482700D02*
X160672300Y-56720400D01*
X160672300Y-56720400D02*
X157360400Y-56720400D01*
X157360400Y-56720400D02*
X155835000Y-55195000D01*
X149210000Y-54920000D02*
X151010400Y-56720400D01*
X151010400Y-56720400D02*
X154309600Y-56720400D01*
X154309600Y-56720400D02*
X155835000Y-55195000D01*
X161910000Y-54920000D02*
X161910000Y-55482700D01*
X170510000Y-64920000D02*
X170510000Y-62570000D01*
X129825400Y-61165400D02*
X169105400Y-61165400D01*
X169105400Y-61165400D02*
X170510000Y-62570000D01*
X122540000Y-53880000D02*
X129825400Y-61165400D01*
X129825400Y-61165400D02*
X129825400Y-72924600D01*
X129825400Y-72924600D02*
X128550000Y-74200000D01*
X126350000Y-74200000D02*
X128550000Y-74200000D01*
X167970000Y-64920000D02*
X167970000Y-67270000D01*
X167970000Y-67270000D02*
X177500000Y-76800000D01*
X177500000Y-76800000D02*
X177500000Y-92500000D01*
M02*
