G04 #@! TF.GenerationSoftware,KiCad,Pcbnew,5.1.5-52549c5~84~ubuntu18.04.1*
G04 #@! TF.CreationDate,2020-01-31T14:03:47+00:00*
G04 #@! TF.ProjectId,BrocheDisco,42726f63-6865-4446-9973-636f2e6b6963,rev?*
G04 #@! TF.SameCoordinates,Original*
G04 #@! TF.FileFunction,Soldermask,Bot*
G04 #@! TF.FilePolarity,Negative*
%FSLAX46Y46*%
G04 Gerber Fmt 4.6, Leading zero omitted, Abs format (unit mm)*
G04 Created by KiCad (PCBNEW 5.1.5-52549c5~84~ubuntu18.04.1) date 2020-01-31 14:03:47*
%MOMM*%
%LPD*%
G04 APERTURE LIST*
%ADD10C,0.100000*%
G04 APERTURE END LIST*
D10*
G36*
X156411000Y-106851000D02*
G01*
X154709000Y-106851000D01*
X154709000Y-105149000D01*
X156411000Y-105149000D01*
X156411000Y-106851000D01*
G37*
G36*
X145050490Y-106050490D02*
G01*
X142949510Y-106050490D01*
X142949510Y-103949510D01*
X145050490Y-103949510D01*
X145050490Y-106050490D01*
G37*
G36*
X155808228Y-103181703D02*
G01*
X155963100Y-103245853D01*
X156102481Y-103338985D01*
X156221015Y-103457519D01*
X156314147Y-103596900D01*
X156378297Y-103751772D01*
X156411000Y-103916184D01*
X156411000Y-104083816D01*
X156378297Y-104248228D01*
X156314147Y-104403100D01*
X156221015Y-104542481D01*
X156102481Y-104661015D01*
X155963100Y-104754147D01*
X155808228Y-104818297D01*
X155643816Y-104851000D01*
X155476184Y-104851000D01*
X155311772Y-104818297D01*
X155156900Y-104754147D01*
X155017519Y-104661015D01*
X154898985Y-104542481D01*
X154805853Y-104403100D01*
X154741703Y-104248228D01*
X154709000Y-104083816D01*
X154709000Y-103916184D01*
X154741703Y-103751772D01*
X154805853Y-103596900D01*
X154898985Y-103457519D01*
X155017519Y-103338985D01*
X155156900Y-103245853D01*
X155311772Y-103181703D01*
X155476184Y-103149000D01*
X155643816Y-103149000D01*
X155808228Y-103181703D01*
G37*
G36*
X180851000Y-104261000D02*
G01*
X179149000Y-104261000D01*
X179149000Y-102559000D01*
X180851000Y-102559000D01*
X180851000Y-104261000D01*
G37*
G36*
X125299059Y-101922860D02*
G01*
X125435732Y-101979472D01*
X125558735Y-102061660D01*
X125663340Y-102166265D01*
X125745528Y-102289268D01*
X125802140Y-102425941D01*
X125831000Y-102571033D01*
X125831000Y-102718967D01*
X125802140Y-102864059D01*
X125745528Y-103000732D01*
X125663340Y-103123735D01*
X125558735Y-103228340D01*
X125435732Y-103310528D01*
X125435731Y-103310529D01*
X125435730Y-103310529D01*
X125299059Y-103367140D01*
X125153968Y-103396000D01*
X125006032Y-103396000D01*
X124860941Y-103367140D01*
X124724270Y-103310529D01*
X124724269Y-103310529D01*
X124724268Y-103310528D01*
X124601265Y-103228340D01*
X124496660Y-103123735D01*
X124414472Y-103000732D01*
X124357860Y-102864059D01*
X124329000Y-102718967D01*
X124329000Y-102571033D01*
X124357860Y-102425941D01*
X124414472Y-102289268D01*
X124496660Y-102166265D01*
X124601265Y-102061660D01*
X124724268Y-101979472D01*
X124860941Y-101922860D01*
X125006032Y-101894000D01*
X125153968Y-101894000D01*
X125299059Y-101922860D01*
G37*
G36*
X132919059Y-101922860D02*
G01*
X133055732Y-101979472D01*
X133178735Y-102061660D01*
X133283340Y-102166265D01*
X133365528Y-102289268D01*
X133422140Y-102425941D01*
X133451000Y-102571033D01*
X133451000Y-102718967D01*
X133422140Y-102864059D01*
X133365528Y-103000732D01*
X133283340Y-103123735D01*
X133178735Y-103228340D01*
X133055732Y-103310528D01*
X133055731Y-103310529D01*
X133055730Y-103310529D01*
X132919059Y-103367140D01*
X132773968Y-103396000D01*
X132626032Y-103396000D01*
X132480941Y-103367140D01*
X132344270Y-103310529D01*
X132344269Y-103310529D01*
X132344268Y-103310528D01*
X132221265Y-103228340D01*
X132116660Y-103123735D01*
X132034472Y-103000732D01*
X131977860Y-102864059D01*
X131949000Y-102718967D01*
X131949000Y-102571033D01*
X131977860Y-102425941D01*
X132034472Y-102289268D01*
X132116660Y-102166265D01*
X132221265Y-102061660D01*
X132344268Y-101979472D01*
X132480941Y-101922860D01*
X132626032Y-101894000D01*
X132773968Y-101894000D01*
X132919059Y-101922860D01*
G37*
G36*
X180248228Y-100591703D02*
G01*
X180403100Y-100655853D01*
X180542481Y-100748985D01*
X180661015Y-100867519D01*
X180754147Y-101006900D01*
X180818297Y-101161772D01*
X180851000Y-101326184D01*
X180851000Y-101493816D01*
X180818297Y-101658228D01*
X180754147Y-101813100D01*
X180661015Y-101952481D01*
X180542481Y-102071015D01*
X180403100Y-102164147D01*
X180248228Y-102228297D01*
X180083816Y-102261000D01*
X179916184Y-102261000D01*
X179751772Y-102228297D01*
X179596900Y-102164147D01*
X179457519Y-102071015D01*
X179338985Y-101952481D01*
X179245853Y-101813100D01*
X179181703Y-101658228D01*
X179149000Y-101493816D01*
X179149000Y-101326184D01*
X179181703Y-101161772D01*
X179245853Y-101006900D01*
X179338985Y-100867519D01*
X179457519Y-100748985D01*
X179596900Y-100655853D01*
X179751772Y-100591703D01*
X179916184Y-100559000D01*
X180083816Y-100559000D01*
X180248228Y-100591703D01*
G37*
G36*
X144306416Y-100179879D02*
G01*
X144497592Y-100259067D01*
X144497594Y-100259068D01*
X144669648Y-100374031D01*
X144815969Y-100520352D01*
X144863646Y-100591705D01*
X144930933Y-100692408D01*
X145010121Y-100883584D01*
X145050490Y-101086534D01*
X145050490Y-101293466D01*
X145010121Y-101496416D01*
X144930933Y-101687592D01*
X144930932Y-101687594D01*
X144815969Y-101859648D01*
X144669648Y-102005969D01*
X144497594Y-102120932D01*
X144497593Y-102120933D01*
X144497592Y-102120933D01*
X144306416Y-102200121D01*
X144103466Y-102240490D01*
X143896534Y-102240490D01*
X143693584Y-102200121D01*
X143502408Y-102120933D01*
X143502407Y-102120933D01*
X143502406Y-102120932D01*
X143330352Y-102005969D01*
X143184031Y-101859648D01*
X143069068Y-101687594D01*
X143069067Y-101687592D01*
X142989879Y-101496416D01*
X142949510Y-101293466D01*
X142949510Y-101086534D01*
X142989879Y-100883584D01*
X143069067Y-100692408D01*
X143136355Y-100591705D01*
X143184031Y-100520352D01*
X143330352Y-100374031D01*
X143502406Y-100259068D01*
X143502408Y-100259067D01*
X143693584Y-100179879D01*
X143896534Y-100139510D01*
X144103466Y-100139510D01*
X144306416Y-100179879D01*
G37*
G36*
X167216564Y-96049389D02*
G01*
X167407833Y-96128615D01*
X167407835Y-96128616D01*
X167579973Y-96243635D01*
X167726365Y-96390027D01*
X167841385Y-96562167D01*
X167920611Y-96753436D01*
X167961000Y-96956484D01*
X167961000Y-97163516D01*
X167920611Y-97366564D01*
X167841385Y-97557833D01*
X167841384Y-97557835D01*
X167726365Y-97729973D01*
X167579973Y-97876365D01*
X167407835Y-97991384D01*
X167407834Y-97991385D01*
X167407833Y-97991385D01*
X167216564Y-98070611D01*
X167013516Y-98111000D01*
X166806484Y-98111000D01*
X166603436Y-98070611D01*
X166412167Y-97991385D01*
X166412166Y-97991385D01*
X166412165Y-97991384D01*
X166240027Y-97876365D01*
X166093635Y-97729973D01*
X165978616Y-97557835D01*
X165978615Y-97557833D01*
X165899389Y-97366564D01*
X165859000Y-97163516D01*
X165859000Y-96956484D01*
X165899389Y-96753436D01*
X165978615Y-96562167D01*
X166093635Y-96390027D01*
X166240027Y-96243635D01*
X166412165Y-96128616D01*
X166412167Y-96128615D01*
X166603436Y-96049389D01*
X166806484Y-96009000D01*
X167013516Y-96009000D01*
X167216564Y-96049389D01*
G37*
G36*
X162216564Y-96049389D02*
G01*
X162407833Y-96128615D01*
X162407835Y-96128616D01*
X162579973Y-96243635D01*
X162726365Y-96390027D01*
X162841385Y-96562167D01*
X162920611Y-96753436D01*
X162961000Y-96956484D01*
X162961000Y-97163516D01*
X162920611Y-97366564D01*
X162841385Y-97557833D01*
X162841384Y-97557835D01*
X162726365Y-97729973D01*
X162579973Y-97876365D01*
X162407835Y-97991384D01*
X162407834Y-97991385D01*
X162407833Y-97991385D01*
X162216564Y-98070611D01*
X162013516Y-98111000D01*
X161806484Y-98111000D01*
X161603436Y-98070611D01*
X161412167Y-97991385D01*
X161412166Y-97991385D01*
X161412165Y-97991384D01*
X161240027Y-97876365D01*
X161093635Y-97729973D01*
X160978616Y-97557835D01*
X160978615Y-97557833D01*
X160899389Y-97366564D01*
X160859000Y-97163516D01*
X160859000Y-96956484D01*
X160899389Y-96753436D01*
X160978615Y-96562167D01*
X161093635Y-96390027D01*
X161240027Y-96243635D01*
X161412165Y-96128616D01*
X161412167Y-96128615D01*
X161603436Y-96049389D01*
X161806484Y-96009000D01*
X162013516Y-96009000D01*
X162216564Y-96049389D01*
G37*
G36*
X152106153Y-94535922D02*
G01*
X152198194Y-94574047D01*
X152328359Y-94627963D01*
X152528342Y-94761587D01*
X152698413Y-94931658D01*
X152832037Y-95131641D01*
X152885953Y-95261806D01*
X152924078Y-95353847D01*
X152971000Y-95589742D01*
X152971000Y-95830258D01*
X152927413Y-96049389D01*
X152924078Y-96066152D01*
X152832037Y-96288359D01*
X152698413Y-96488342D01*
X152528342Y-96658413D01*
X152328359Y-96792037D01*
X152198194Y-96845953D01*
X152106153Y-96884078D01*
X151988205Y-96907539D01*
X151870259Y-96931000D01*
X151629741Y-96931000D01*
X151511795Y-96907539D01*
X151393847Y-96884078D01*
X151301806Y-96845953D01*
X151171641Y-96792037D01*
X150971658Y-96658413D01*
X150801587Y-96488342D01*
X150667963Y-96288359D01*
X150575922Y-96066152D01*
X150572588Y-96049389D01*
X150529000Y-95830258D01*
X150529000Y-95589742D01*
X150575922Y-95353847D01*
X150614047Y-95261806D01*
X150667963Y-95131641D01*
X150801587Y-94931658D01*
X150971658Y-94761587D01*
X151171641Y-94627963D01*
X151301806Y-94574047D01*
X151393847Y-94535922D01*
X151511795Y-94512461D01*
X151629741Y-94489000D01*
X151870259Y-94489000D01*
X152106153Y-94535922D01*
G37*
G36*
X142641000Y-95571000D02*
G01*
X140539000Y-95571000D01*
X140539000Y-93469000D01*
X142641000Y-93469000D01*
X142641000Y-95571000D01*
G37*
G36*
X154488205Y-92012461D02*
G01*
X154606153Y-92035922D01*
X154690838Y-92071000D01*
X154828359Y-92127963D01*
X155028342Y-92261587D01*
X155198413Y-92431658D01*
X155332037Y-92631641D01*
X155385953Y-92761806D01*
X155424078Y-92853847D01*
X155471000Y-93089742D01*
X155471000Y-93330258D01*
X155424078Y-93566153D01*
X155385953Y-93658194D01*
X155332037Y-93788359D01*
X155198413Y-93988342D01*
X155028342Y-94158413D01*
X154828359Y-94292037D01*
X154698194Y-94345953D01*
X154606153Y-94384078D01*
X154370259Y-94431000D01*
X154129741Y-94431000D01*
X153893847Y-94384078D01*
X153801806Y-94345953D01*
X153671641Y-94292037D01*
X153471658Y-94158413D01*
X153301587Y-93988342D01*
X153167963Y-93788359D01*
X153114047Y-93658194D01*
X153075922Y-93566153D01*
X153029000Y-93330258D01*
X153029000Y-93089742D01*
X153075922Y-92853847D01*
X153114047Y-92761806D01*
X153167963Y-92631641D01*
X153301587Y-92431658D01*
X153471658Y-92261587D01*
X153671641Y-92127963D01*
X153809162Y-92071000D01*
X153893847Y-92035922D01*
X154129741Y-91989000D01*
X154370259Y-91989000D01*
X154488205Y-92012461D01*
G37*
G36*
X177738205Y-91302461D02*
G01*
X177856153Y-91325922D01*
X177948194Y-91364047D01*
X178078359Y-91417963D01*
X178278342Y-91551587D01*
X178448413Y-91721658D01*
X178582037Y-91921641D01*
X178594357Y-91951385D01*
X178674078Y-92143847D01*
X178721000Y-92379742D01*
X178721000Y-92620258D01*
X178674537Y-92853847D01*
X178674078Y-92856152D01*
X178582037Y-93078359D01*
X178448413Y-93278342D01*
X178278342Y-93448413D01*
X178078359Y-93582037D01*
X177948194Y-93635953D01*
X177856153Y-93674078D01*
X177620259Y-93721000D01*
X177379741Y-93721000D01*
X177143847Y-93674078D01*
X177051806Y-93635953D01*
X176921641Y-93582037D01*
X176721658Y-93448413D01*
X176551587Y-93278342D01*
X176417963Y-93078359D01*
X176325922Y-92856152D01*
X176325464Y-92853847D01*
X176279000Y-92620258D01*
X176279000Y-92379742D01*
X176325922Y-92143847D01*
X176405643Y-91951385D01*
X176417963Y-91921641D01*
X176551587Y-91721658D01*
X176721658Y-91551587D01*
X176921641Y-91417963D01*
X177051806Y-91364047D01*
X177143847Y-91325922D01*
X177261795Y-91302461D01*
X177379741Y-91279000D01*
X177620259Y-91279000D01*
X177738205Y-91302461D01*
G37*
G36*
X141896564Y-90009389D02*
G01*
X142087833Y-90088615D01*
X142087835Y-90088616D01*
X142135192Y-90120259D01*
X142259973Y-90203635D01*
X142406365Y-90350027D01*
X142521385Y-90522167D01*
X142600611Y-90713436D01*
X142641000Y-90916484D01*
X142641000Y-91123516D01*
X142600611Y-91326564D01*
X142521385Y-91517833D01*
X142521384Y-91517835D01*
X142406365Y-91689973D01*
X142259973Y-91836365D01*
X142087835Y-91951384D01*
X142087834Y-91951385D01*
X142087833Y-91951385D01*
X141896564Y-92030611D01*
X141693516Y-92071000D01*
X141486484Y-92071000D01*
X141283436Y-92030611D01*
X141092167Y-91951385D01*
X141092166Y-91951385D01*
X141092165Y-91951384D01*
X140920027Y-91836365D01*
X140773635Y-91689973D01*
X140658616Y-91517835D01*
X140658615Y-91517833D01*
X140579389Y-91326564D01*
X140539000Y-91123516D01*
X140539000Y-90916484D01*
X140579389Y-90713436D01*
X140658615Y-90522167D01*
X140773635Y-90350027D01*
X140920027Y-90203635D01*
X141044808Y-90120259D01*
X141092165Y-90088616D01*
X141092167Y-90088615D01*
X141283436Y-90009389D01*
X141486484Y-89969000D01*
X141693516Y-89969000D01*
X141896564Y-90009389D01*
G37*
G36*
X152106153Y-89535922D02*
G01*
X152198194Y-89574047D01*
X152328359Y-89627963D01*
X152528342Y-89761587D01*
X152698413Y-89931658D01*
X152832037Y-90131641D01*
X152861858Y-90203635D01*
X152924078Y-90353847D01*
X152971000Y-90589742D01*
X152971000Y-90830258D01*
X152924078Y-91066153D01*
X152900318Y-91123514D01*
X152832037Y-91288359D01*
X152698413Y-91488342D01*
X152528342Y-91658413D01*
X152328359Y-91792037D01*
X152198194Y-91845953D01*
X152106153Y-91884078D01*
X151870259Y-91931000D01*
X151629741Y-91931000D01*
X151393847Y-91884078D01*
X151301806Y-91845953D01*
X151171641Y-91792037D01*
X150971658Y-91658413D01*
X150801587Y-91488342D01*
X150667963Y-91288359D01*
X150599682Y-91123514D01*
X150575922Y-91066153D01*
X150529000Y-90830258D01*
X150529000Y-90589742D01*
X150575922Y-90353847D01*
X150638142Y-90203635D01*
X150667963Y-90131641D01*
X150801587Y-89931658D01*
X150971658Y-89761587D01*
X151171641Y-89627963D01*
X151301806Y-89574047D01*
X151393847Y-89535922D01*
X151629741Y-89489000D01*
X151870259Y-89489000D01*
X152106153Y-89535922D01*
G37*
G36*
X180238205Y-88802461D02*
G01*
X180356153Y-88825922D01*
X180448194Y-88864047D01*
X180578359Y-88917963D01*
X180778342Y-89051587D01*
X180948413Y-89221658D01*
X181082037Y-89421641D01*
X181109938Y-89489000D01*
X181174078Y-89643847D01*
X181221000Y-89879742D01*
X181221000Y-90120258D01*
X181174537Y-90353847D01*
X181174078Y-90356152D01*
X181082037Y-90578359D01*
X180948413Y-90778342D01*
X180778342Y-90948413D01*
X180578359Y-91082037D01*
X180448194Y-91135953D01*
X180356153Y-91174078D01*
X180120259Y-91221000D01*
X179879741Y-91221000D01*
X179761795Y-91197539D01*
X179643847Y-91174078D01*
X179551806Y-91135953D01*
X179421641Y-91082037D01*
X179221658Y-90948413D01*
X179051587Y-90778342D01*
X178917963Y-90578359D01*
X178825922Y-90356152D01*
X178825464Y-90353847D01*
X178779000Y-90120258D01*
X178779000Y-89879742D01*
X178825922Y-89643847D01*
X178890062Y-89489000D01*
X178917963Y-89421641D01*
X179051587Y-89221658D01*
X179221658Y-89051587D01*
X179421641Y-88917963D01*
X179551806Y-88864047D01*
X179643847Y-88825922D01*
X179761795Y-88802461D01*
X179879741Y-88779000D01*
X180120259Y-88779000D01*
X180238205Y-88802461D01*
G37*
G36*
X175238205Y-88802461D02*
G01*
X175356153Y-88825922D01*
X175448194Y-88864047D01*
X175578359Y-88917963D01*
X175778342Y-89051587D01*
X175948413Y-89221658D01*
X176082037Y-89421641D01*
X176109938Y-89489000D01*
X176174078Y-89643847D01*
X176221000Y-89879742D01*
X176221000Y-90120258D01*
X176174537Y-90353847D01*
X176174078Y-90356152D01*
X176082037Y-90578359D01*
X175948413Y-90778342D01*
X175778342Y-90948413D01*
X175578359Y-91082037D01*
X175448194Y-91135953D01*
X175356153Y-91174078D01*
X175120259Y-91221000D01*
X174879741Y-91221000D01*
X174761795Y-91197539D01*
X174643847Y-91174078D01*
X174551806Y-91135953D01*
X174421641Y-91082037D01*
X174221658Y-90948413D01*
X174051587Y-90778342D01*
X173917963Y-90578359D01*
X173825922Y-90356152D01*
X173825464Y-90353847D01*
X173779000Y-90120258D01*
X173779000Y-89879742D01*
X173825922Y-89643847D01*
X173890062Y-89489000D01*
X173917963Y-89421641D01*
X174051587Y-89221658D01*
X174221658Y-89051587D01*
X174421641Y-88917963D01*
X174551806Y-88864047D01*
X174643847Y-88825922D01*
X174761795Y-88802461D01*
X174879741Y-88779000D01*
X175120259Y-88779000D01*
X175238205Y-88802461D01*
G37*
G36*
X170381000Y-85851000D02*
G01*
X168679000Y-85851000D01*
X168679000Y-84149000D01*
X170381000Y-84149000D01*
X170381000Y-85851000D01*
G37*
G36*
X169778228Y-82181703D02*
G01*
X169933100Y-82245853D01*
X170072481Y-82338985D01*
X170191015Y-82457519D01*
X170284147Y-82596900D01*
X170348297Y-82751772D01*
X170381000Y-82916184D01*
X170381000Y-83083816D01*
X170348297Y-83248228D01*
X170284147Y-83403100D01*
X170191015Y-83542481D01*
X170072481Y-83661015D01*
X169933100Y-83754147D01*
X169778228Y-83818297D01*
X169613816Y-83851000D01*
X169446184Y-83851000D01*
X169281772Y-83818297D01*
X169126900Y-83754147D01*
X168987519Y-83661015D01*
X168868985Y-83542481D01*
X168775853Y-83403100D01*
X168711703Y-83248228D01*
X168679000Y-83083816D01*
X168679000Y-82916184D01*
X168711703Y-82751772D01*
X168775853Y-82596900D01*
X168868985Y-82457519D01*
X168987519Y-82338985D01*
X169126900Y-82245853D01*
X169281772Y-82181703D01*
X169446184Y-82149000D01*
X169613816Y-82149000D01*
X169778228Y-82181703D01*
G37*
G36*
X143224903Y-80617075D02*
G01*
X143452571Y-80711378D01*
X143657466Y-80848285D01*
X143831715Y-81022534D01*
X143968622Y-81227429D01*
X144062925Y-81455097D01*
X144111000Y-81696787D01*
X144111000Y-81943213D01*
X144062925Y-82184903D01*
X143968622Y-82412571D01*
X143831715Y-82617466D01*
X143657466Y-82791715D01*
X143452571Y-82928622D01*
X143452570Y-82928623D01*
X143452569Y-82928623D01*
X143224903Y-83022925D01*
X142983214Y-83071000D01*
X142736786Y-83071000D01*
X142495097Y-83022925D01*
X142267431Y-82928623D01*
X142267430Y-82928623D01*
X142267429Y-82928622D01*
X142062534Y-82791715D01*
X141888285Y-82617466D01*
X141751378Y-82412571D01*
X141657075Y-82184903D01*
X141609000Y-81943213D01*
X141609000Y-81696787D01*
X141657075Y-81455097D01*
X141751378Y-81227429D01*
X141888285Y-81022534D01*
X142062534Y-80848285D01*
X142267429Y-80711378D01*
X142495097Y-80617075D01*
X142736786Y-80569000D01*
X142983214Y-80569000D01*
X143224903Y-80617075D01*
G37*
G36*
X163544903Y-80617075D02*
G01*
X163772571Y-80711378D01*
X163977466Y-80848285D01*
X164151715Y-81022534D01*
X164288622Y-81227429D01*
X164382925Y-81455097D01*
X164431000Y-81696787D01*
X164431000Y-81943213D01*
X164382925Y-82184903D01*
X164288622Y-82412571D01*
X164151715Y-82617466D01*
X163977466Y-82791715D01*
X163772571Y-82928622D01*
X163772570Y-82928623D01*
X163772569Y-82928623D01*
X163544903Y-83022925D01*
X163303214Y-83071000D01*
X163056786Y-83071000D01*
X162815097Y-83022925D01*
X162587431Y-82928623D01*
X162587430Y-82928623D01*
X162587429Y-82928622D01*
X162382534Y-82791715D01*
X162208285Y-82617466D01*
X162071378Y-82412571D01*
X161977075Y-82184903D01*
X161929000Y-81943213D01*
X161929000Y-81696787D01*
X161977075Y-81455097D01*
X162071378Y-81227429D01*
X162208285Y-81022534D01*
X162382534Y-80848285D01*
X162587429Y-80711378D01*
X162815097Y-80617075D01*
X163056786Y-80569000D01*
X163303214Y-80569000D01*
X163544903Y-80617075D01*
G37*
G36*
X134189059Y-78557860D02*
G01*
X134325732Y-78614472D01*
X134448735Y-78696660D01*
X134553340Y-78801265D01*
X134635528Y-78924268D01*
X134692140Y-79060941D01*
X134721000Y-79206033D01*
X134721000Y-79353967D01*
X134692140Y-79499059D01*
X134635528Y-79635732D01*
X134553340Y-79758735D01*
X134448735Y-79863340D01*
X134325732Y-79945528D01*
X134325731Y-79945529D01*
X134325730Y-79945529D01*
X134189059Y-80002140D01*
X134043968Y-80031000D01*
X133896032Y-80031000D01*
X133750941Y-80002140D01*
X133614270Y-79945529D01*
X133614269Y-79945529D01*
X133614268Y-79945528D01*
X133491265Y-79863340D01*
X133386660Y-79758735D01*
X133304472Y-79635732D01*
X133247860Y-79499059D01*
X133219000Y-79353967D01*
X133219000Y-79206033D01*
X133247860Y-79060941D01*
X133304472Y-78924268D01*
X133386660Y-78801265D01*
X133491265Y-78696660D01*
X133614268Y-78614472D01*
X133750941Y-78557860D01*
X133896032Y-78529000D01*
X134043968Y-78529000D01*
X134189059Y-78557860D01*
G37*
G36*
X126569059Y-78557860D02*
G01*
X126705732Y-78614472D01*
X126828735Y-78696660D01*
X126933340Y-78801265D01*
X127015528Y-78924268D01*
X127072140Y-79060941D01*
X127101000Y-79206033D01*
X127101000Y-79353967D01*
X127072140Y-79499059D01*
X127015528Y-79635732D01*
X126933340Y-79758735D01*
X126828735Y-79863340D01*
X126705732Y-79945528D01*
X126705731Y-79945529D01*
X126705730Y-79945529D01*
X126569059Y-80002140D01*
X126423968Y-80031000D01*
X126276032Y-80031000D01*
X126130941Y-80002140D01*
X125994270Y-79945529D01*
X125994269Y-79945529D01*
X125994268Y-79945528D01*
X125871265Y-79863340D01*
X125766660Y-79758735D01*
X125684472Y-79635732D01*
X125627860Y-79499059D01*
X125599000Y-79353967D01*
X125599000Y-79206033D01*
X125627860Y-79060941D01*
X125684472Y-78924268D01*
X125766660Y-78801265D01*
X125871265Y-78696660D01*
X125994268Y-78614472D01*
X126130941Y-78557860D01*
X126276032Y-78529000D01*
X126423968Y-78529000D01*
X126569059Y-78557860D01*
G37*
G36*
X180054903Y-74267075D02*
G01*
X180282571Y-74361378D01*
X180487466Y-74498285D01*
X180661715Y-74672534D01*
X180798622Y-74877429D01*
X180892925Y-75105097D01*
X180941000Y-75346787D01*
X180941000Y-75593213D01*
X180892925Y-75834903D01*
X180798622Y-76062571D01*
X180661715Y-76267466D01*
X180487466Y-76441715D01*
X180282571Y-76578622D01*
X180282570Y-76578623D01*
X180282569Y-76578623D01*
X180054903Y-76672925D01*
X179813214Y-76721000D01*
X179566786Y-76721000D01*
X179325097Y-76672925D01*
X179097431Y-76578623D01*
X179097430Y-76578623D01*
X179097429Y-76578622D01*
X178892534Y-76441715D01*
X178718285Y-76267466D01*
X178581378Y-76062571D01*
X178487075Y-75834903D01*
X178439000Y-75593213D01*
X178439000Y-75346787D01*
X178487075Y-75105097D01*
X178581378Y-74877429D01*
X178718285Y-74672534D01*
X178892534Y-74498285D01*
X179097429Y-74361378D01*
X179325097Y-74267075D01*
X179566786Y-74219000D01*
X179813214Y-74219000D01*
X180054903Y-74267075D01*
G37*
G36*
X126916823Y-73361313D02*
G01*
X127077242Y-73409976D01*
X127209906Y-73480886D01*
X127225078Y-73488996D01*
X127354659Y-73595341D01*
X127461004Y-73724922D01*
X127461005Y-73724924D01*
X127540024Y-73872758D01*
X127588687Y-74033177D01*
X127605117Y-74200000D01*
X127588687Y-74366823D01*
X127540024Y-74527242D01*
X127469114Y-74659906D01*
X127461004Y-74675078D01*
X127354659Y-74804659D01*
X127225078Y-74911004D01*
X127225076Y-74911005D01*
X127077242Y-74990024D01*
X126916823Y-75038687D01*
X126791804Y-75051000D01*
X125908196Y-75051000D01*
X125783177Y-75038687D01*
X125622758Y-74990024D01*
X125474924Y-74911005D01*
X125474922Y-74911004D01*
X125345341Y-74804659D01*
X125238996Y-74675078D01*
X125230886Y-74659906D01*
X125159976Y-74527242D01*
X125111313Y-74366823D01*
X125094883Y-74200000D01*
X125111313Y-74033177D01*
X125159976Y-73872758D01*
X125238995Y-73724924D01*
X125238996Y-73724922D01*
X125345341Y-73595341D01*
X125474922Y-73488996D01*
X125490094Y-73480886D01*
X125622758Y-73409976D01*
X125783177Y-73361313D01*
X125908196Y-73349000D01*
X126791804Y-73349000D01*
X126916823Y-73361313D01*
G37*
G36*
X135221000Y-75051000D02*
G01*
X132719000Y-75051000D01*
X132719000Y-73349000D01*
X135221000Y-73349000D01*
X135221000Y-75051000D01*
G37*
G36*
X134536823Y-70821313D02*
G01*
X134697242Y-70869976D01*
X134802115Y-70926032D01*
X134845078Y-70948996D01*
X134974659Y-71055341D01*
X135081004Y-71184922D01*
X135081005Y-71184924D01*
X135160024Y-71332758D01*
X135208687Y-71493177D01*
X135225117Y-71660000D01*
X135208687Y-71826823D01*
X135160024Y-71987242D01*
X135089114Y-72119906D01*
X135081004Y-72135078D01*
X134974659Y-72264659D01*
X134845078Y-72371004D01*
X134845076Y-72371005D01*
X134697242Y-72450024D01*
X134536823Y-72498687D01*
X134411804Y-72511000D01*
X133528196Y-72511000D01*
X133403177Y-72498687D01*
X133242758Y-72450024D01*
X133094924Y-72371005D01*
X133094922Y-72371004D01*
X132965341Y-72264659D01*
X132858996Y-72135078D01*
X132850886Y-72119906D01*
X132779976Y-71987242D01*
X132731313Y-71826823D01*
X132714883Y-71660000D01*
X132731313Y-71493177D01*
X132779976Y-71332758D01*
X132858995Y-71184924D01*
X132858996Y-71184922D01*
X132965341Y-71055341D01*
X133094922Y-70948996D01*
X133137885Y-70926032D01*
X133242758Y-70869976D01*
X133403177Y-70821313D01*
X133528196Y-70809000D01*
X134411804Y-70809000D01*
X134536823Y-70821313D01*
G37*
G36*
X126916823Y-70821313D02*
G01*
X127077242Y-70869976D01*
X127182115Y-70926032D01*
X127225078Y-70948996D01*
X127354659Y-71055341D01*
X127461004Y-71184922D01*
X127461005Y-71184924D01*
X127540024Y-71332758D01*
X127588687Y-71493177D01*
X127605117Y-71660000D01*
X127588687Y-71826823D01*
X127540024Y-71987242D01*
X127469114Y-72119906D01*
X127461004Y-72135078D01*
X127354659Y-72264659D01*
X127225078Y-72371004D01*
X127225076Y-72371005D01*
X127077242Y-72450024D01*
X126916823Y-72498687D01*
X126791804Y-72511000D01*
X125908196Y-72511000D01*
X125783177Y-72498687D01*
X125622758Y-72450024D01*
X125474924Y-72371005D01*
X125474922Y-72371004D01*
X125345341Y-72264659D01*
X125238996Y-72135078D01*
X125230886Y-72119906D01*
X125159976Y-71987242D01*
X125111313Y-71826823D01*
X125094883Y-71660000D01*
X125111313Y-71493177D01*
X125159976Y-71332758D01*
X125238995Y-71184924D01*
X125238996Y-71184922D01*
X125345341Y-71055341D01*
X125474922Y-70948996D01*
X125517885Y-70926032D01*
X125622758Y-70869976D01*
X125783177Y-70821313D01*
X125908196Y-70809000D01*
X126791804Y-70809000D01*
X126916823Y-70821313D01*
G37*
G36*
X142219059Y-70277860D02*
G01*
X142355732Y-70334472D01*
X142478735Y-70416660D01*
X142583340Y-70521265D01*
X142665528Y-70644268D01*
X142722140Y-70780941D01*
X142751000Y-70926033D01*
X142751000Y-71073967D01*
X142722140Y-71219059D01*
X142665528Y-71355732D01*
X142583340Y-71478735D01*
X142478735Y-71583340D01*
X142355732Y-71665528D01*
X142355731Y-71665529D01*
X142355730Y-71665529D01*
X142219059Y-71722140D01*
X142073968Y-71751000D01*
X141926032Y-71751000D01*
X141780941Y-71722140D01*
X141644270Y-71665529D01*
X141644269Y-71665529D01*
X141644268Y-71665528D01*
X141521265Y-71583340D01*
X141416660Y-71478735D01*
X141334472Y-71355732D01*
X141277860Y-71219059D01*
X141249000Y-71073967D01*
X141249000Y-70926033D01*
X141277860Y-70780941D01*
X141334472Y-70644268D01*
X141416660Y-70521265D01*
X141521265Y-70416660D01*
X141644268Y-70334472D01*
X141780941Y-70277860D01*
X141926032Y-70249000D01*
X142073968Y-70249000D01*
X142219059Y-70277860D01*
G37*
G36*
X134536823Y-68281313D02*
G01*
X134697242Y-68329976D01*
X134829906Y-68400886D01*
X134845078Y-68408996D01*
X134974659Y-68515341D01*
X135081004Y-68644922D01*
X135081005Y-68644924D01*
X135160024Y-68792758D01*
X135208687Y-68953177D01*
X135225117Y-69120000D01*
X135208687Y-69286823D01*
X135160024Y-69447242D01*
X135089114Y-69579906D01*
X135081004Y-69595078D01*
X134974659Y-69724659D01*
X134845078Y-69831004D01*
X134845076Y-69831005D01*
X134697242Y-69910024D01*
X134536823Y-69958687D01*
X134411804Y-69971000D01*
X133528196Y-69971000D01*
X133403177Y-69958687D01*
X133242758Y-69910024D01*
X133094924Y-69831005D01*
X133094922Y-69831004D01*
X132965341Y-69724659D01*
X132858996Y-69595078D01*
X132850886Y-69579906D01*
X132779976Y-69447242D01*
X132731313Y-69286823D01*
X132714883Y-69120000D01*
X132731313Y-68953177D01*
X132779976Y-68792758D01*
X132858995Y-68644924D01*
X132858996Y-68644922D01*
X132965341Y-68515341D01*
X133094922Y-68408996D01*
X133110094Y-68400886D01*
X133242758Y-68329976D01*
X133403177Y-68281313D01*
X133528196Y-68269000D01*
X134411804Y-68269000D01*
X134536823Y-68281313D01*
G37*
G36*
X126916823Y-68281313D02*
G01*
X127077242Y-68329976D01*
X127209906Y-68400886D01*
X127225078Y-68408996D01*
X127354659Y-68515341D01*
X127461004Y-68644922D01*
X127461005Y-68644924D01*
X127540024Y-68792758D01*
X127588687Y-68953177D01*
X127605117Y-69120000D01*
X127588687Y-69286823D01*
X127540024Y-69447242D01*
X127469114Y-69579906D01*
X127461004Y-69595078D01*
X127354659Y-69724659D01*
X127225078Y-69831004D01*
X127225076Y-69831005D01*
X127077242Y-69910024D01*
X126916823Y-69958687D01*
X126791804Y-69971000D01*
X125908196Y-69971000D01*
X125783177Y-69958687D01*
X125622758Y-69910024D01*
X125474924Y-69831005D01*
X125474922Y-69831004D01*
X125345341Y-69724659D01*
X125238996Y-69595078D01*
X125230886Y-69579906D01*
X125159976Y-69447242D01*
X125111313Y-69286823D01*
X125094883Y-69120000D01*
X125111313Y-68953177D01*
X125159976Y-68792758D01*
X125238995Y-68644924D01*
X125238996Y-68644922D01*
X125345341Y-68515341D01*
X125474922Y-68408996D01*
X125490094Y-68400886D01*
X125622758Y-68329976D01*
X125783177Y-68281313D01*
X125908196Y-68269000D01*
X126791804Y-68269000D01*
X126916823Y-68281313D01*
G37*
G36*
X134536823Y-65741313D02*
G01*
X134697242Y-65789976D01*
X134829906Y-65860886D01*
X134845078Y-65868996D01*
X134974659Y-65975341D01*
X135081004Y-66104922D01*
X135081005Y-66104924D01*
X135160024Y-66252758D01*
X135160025Y-66252761D01*
X135169083Y-66282620D01*
X135208687Y-66413177D01*
X135225117Y-66580000D01*
X135208687Y-66746823D01*
X135160024Y-66907242D01*
X135089114Y-67039906D01*
X135081004Y-67055078D01*
X134974659Y-67184659D01*
X134845078Y-67291004D01*
X134845076Y-67291005D01*
X134697242Y-67370024D01*
X134536823Y-67418687D01*
X134411804Y-67431000D01*
X133528196Y-67431000D01*
X133403177Y-67418687D01*
X133242758Y-67370024D01*
X133094924Y-67291005D01*
X133094922Y-67291004D01*
X132965341Y-67184659D01*
X132858996Y-67055078D01*
X132850886Y-67039906D01*
X132779976Y-66907242D01*
X132731313Y-66746823D01*
X132714883Y-66580000D01*
X132731313Y-66413177D01*
X132770917Y-66282620D01*
X132779975Y-66252761D01*
X132779976Y-66252758D01*
X132858995Y-66104924D01*
X132858996Y-66104922D01*
X132965341Y-65975341D01*
X133094922Y-65868996D01*
X133110094Y-65860886D01*
X133242758Y-65789976D01*
X133403177Y-65741313D01*
X133528196Y-65729000D01*
X134411804Y-65729000D01*
X134536823Y-65741313D01*
G37*
G36*
X126916823Y-65741313D02*
G01*
X127077242Y-65789976D01*
X127209906Y-65860886D01*
X127225078Y-65868996D01*
X127354659Y-65975341D01*
X127461004Y-66104922D01*
X127461005Y-66104924D01*
X127540024Y-66252758D01*
X127540025Y-66252761D01*
X127549083Y-66282620D01*
X127588687Y-66413177D01*
X127605117Y-66580000D01*
X127588687Y-66746823D01*
X127540024Y-66907242D01*
X127469114Y-67039906D01*
X127461004Y-67055078D01*
X127354659Y-67184659D01*
X127225078Y-67291004D01*
X127225076Y-67291005D01*
X127077242Y-67370024D01*
X126916823Y-67418687D01*
X126791804Y-67431000D01*
X125908196Y-67431000D01*
X125783177Y-67418687D01*
X125622758Y-67370024D01*
X125474924Y-67291005D01*
X125474922Y-67291004D01*
X125345341Y-67184659D01*
X125238996Y-67055078D01*
X125230886Y-67039906D01*
X125159976Y-66907242D01*
X125111313Y-66746823D01*
X125094883Y-66580000D01*
X125111313Y-66413177D01*
X125150917Y-66282620D01*
X125159975Y-66252761D01*
X125159976Y-66252758D01*
X125238995Y-66104924D01*
X125238996Y-66104922D01*
X125345341Y-65975341D01*
X125474922Y-65868996D01*
X125490094Y-65860886D01*
X125622758Y-65789976D01*
X125783177Y-65741313D01*
X125908196Y-65729000D01*
X126791804Y-65729000D01*
X126916823Y-65741313D01*
G37*
G36*
X168136822Y-63531313D02*
G01*
X168297241Y-63579976D01*
X168445077Y-63658995D01*
X168574659Y-63765341D01*
X168681004Y-63894922D01*
X168681005Y-63894924D01*
X168760024Y-64042758D01*
X168808687Y-64203177D01*
X168821000Y-64328196D01*
X168821000Y-65511804D01*
X168808687Y-65636823D01*
X168808686Y-65636825D01*
X168762229Y-65789975D01*
X168760024Y-65797242D01*
X168689114Y-65929906D01*
X168681004Y-65945078D01*
X168574659Y-66074659D01*
X168445078Y-66181004D01*
X168445076Y-66181005D01*
X168297242Y-66260024D01*
X168136823Y-66308687D01*
X167970000Y-66325117D01*
X167803178Y-66308687D01*
X167642759Y-66260024D01*
X167494925Y-66181005D01*
X167494923Y-66181004D01*
X167365342Y-66074659D01*
X167258997Y-65945078D01*
X167250887Y-65929906D01*
X167179977Y-65797242D01*
X167177773Y-65789975D01*
X167131315Y-65636825D01*
X167131314Y-65636823D01*
X167119001Y-65511804D01*
X167119000Y-64328197D01*
X167131313Y-64203178D01*
X167179976Y-64042759D01*
X167258995Y-63894923D01*
X167365341Y-63765341D01*
X167494922Y-63658996D01*
X167510094Y-63650886D01*
X167642758Y-63579976D01*
X167803177Y-63531313D01*
X167970000Y-63514883D01*
X168136822Y-63531313D01*
G37*
G36*
X152896822Y-63531313D02*
G01*
X153057241Y-63579976D01*
X153205077Y-63658995D01*
X153334659Y-63765341D01*
X153441004Y-63894922D01*
X153441005Y-63894924D01*
X153520024Y-64042758D01*
X153568687Y-64203177D01*
X153581000Y-64328196D01*
X153581000Y-65511804D01*
X153568687Y-65636823D01*
X153568686Y-65636825D01*
X153522229Y-65789975D01*
X153520024Y-65797242D01*
X153449114Y-65929906D01*
X153441004Y-65945078D01*
X153334659Y-66074659D01*
X153205078Y-66181004D01*
X153205076Y-66181005D01*
X153057242Y-66260024D01*
X152896823Y-66308687D01*
X152730000Y-66325117D01*
X152563178Y-66308687D01*
X152402759Y-66260024D01*
X152254925Y-66181005D01*
X152254923Y-66181004D01*
X152125342Y-66074659D01*
X152018997Y-65945078D01*
X152010887Y-65929906D01*
X151939977Y-65797242D01*
X151937773Y-65789975D01*
X151891315Y-65636825D01*
X151891314Y-65636823D01*
X151879001Y-65511804D01*
X151879000Y-64328197D01*
X151891313Y-64203178D01*
X151939976Y-64042759D01*
X152018995Y-63894923D01*
X152125341Y-63765341D01*
X152254922Y-63658996D01*
X152270094Y-63650886D01*
X152402758Y-63579976D01*
X152563177Y-63531313D01*
X152730000Y-63514883D01*
X152896822Y-63531313D01*
G37*
G36*
X155436822Y-63531313D02*
G01*
X155597241Y-63579976D01*
X155745077Y-63658995D01*
X155874659Y-63765341D01*
X155981004Y-63894922D01*
X155981005Y-63894924D01*
X156060024Y-64042758D01*
X156108687Y-64203177D01*
X156121000Y-64328196D01*
X156121000Y-65511804D01*
X156108687Y-65636823D01*
X156108686Y-65636825D01*
X156062229Y-65789975D01*
X156060024Y-65797242D01*
X155989114Y-65929906D01*
X155981004Y-65945078D01*
X155874659Y-66074659D01*
X155745078Y-66181004D01*
X155745076Y-66181005D01*
X155597242Y-66260024D01*
X155436823Y-66308687D01*
X155270000Y-66325117D01*
X155103178Y-66308687D01*
X154942759Y-66260024D01*
X154794925Y-66181005D01*
X154794923Y-66181004D01*
X154665342Y-66074659D01*
X154558997Y-65945078D01*
X154550887Y-65929906D01*
X154479977Y-65797242D01*
X154477773Y-65789975D01*
X154431315Y-65636825D01*
X154431314Y-65636823D01*
X154419001Y-65511804D01*
X154419000Y-64328197D01*
X154431313Y-64203178D01*
X154479976Y-64042759D01*
X154558995Y-63894923D01*
X154665341Y-63765341D01*
X154794922Y-63658996D01*
X154810094Y-63650886D01*
X154942758Y-63579976D01*
X155103177Y-63531313D01*
X155270000Y-63514883D01*
X155436822Y-63531313D01*
G37*
G36*
X157976822Y-63531313D02*
G01*
X158137241Y-63579976D01*
X158285077Y-63658995D01*
X158414659Y-63765341D01*
X158521004Y-63894922D01*
X158521005Y-63894924D01*
X158600024Y-64042758D01*
X158648687Y-64203177D01*
X158661000Y-64328196D01*
X158661000Y-65511804D01*
X158648687Y-65636823D01*
X158648686Y-65636825D01*
X158602229Y-65789975D01*
X158600024Y-65797242D01*
X158529114Y-65929906D01*
X158521004Y-65945078D01*
X158414659Y-66074659D01*
X158285078Y-66181004D01*
X158285076Y-66181005D01*
X158137242Y-66260024D01*
X157976823Y-66308687D01*
X157810000Y-66325117D01*
X157643178Y-66308687D01*
X157482759Y-66260024D01*
X157334925Y-66181005D01*
X157334923Y-66181004D01*
X157205342Y-66074659D01*
X157098997Y-65945078D01*
X157090887Y-65929906D01*
X157019977Y-65797242D01*
X157017773Y-65789975D01*
X156971315Y-65636825D01*
X156971314Y-65636823D01*
X156959001Y-65511804D01*
X156959000Y-64328197D01*
X156971313Y-64203178D01*
X157019976Y-64042759D01*
X157098995Y-63894923D01*
X157205341Y-63765341D01*
X157334922Y-63658996D01*
X157350094Y-63650886D01*
X157482758Y-63579976D01*
X157643177Y-63531313D01*
X157810000Y-63514883D01*
X157976822Y-63531313D01*
G37*
G36*
X160516822Y-63531313D02*
G01*
X160677241Y-63579976D01*
X160825077Y-63658995D01*
X160954659Y-63765341D01*
X161061004Y-63894922D01*
X161061005Y-63894924D01*
X161140024Y-64042758D01*
X161188687Y-64203177D01*
X161201000Y-64328196D01*
X161201000Y-65511804D01*
X161188687Y-65636823D01*
X161188686Y-65636825D01*
X161142229Y-65789975D01*
X161140024Y-65797242D01*
X161069114Y-65929906D01*
X161061004Y-65945078D01*
X160954659Y-66074659D01*
X160825078Y-66181004D01*
X160825076Y-66181005D01*
X160677242Y-66260024D01*
X160516823Y-66308687D01*
X160350000Y-66325117D01*
X160183178Y-66308687D01*
X160022759Y-66260024D01*
X159874925Y-66181005D01*
X159874923Y-66181004D01*
X159745342Y-66074659D01*
X159638997Y-65945078D01*
X159630887Y-65929906D01*
X159559977Y-65797242D01*
X159557773Y-65789975D01*
X159511315Y-65636825D01*
X159511314Y-65636823D01*
X159499001Y-65511804D01*
X159499000Y-64328197D01*
X159511313Y-64203178D01*
X159559976Y-64042759D01*
X159638995Y-63894923D01*
X159745341Y-63765341D01*
X159874922Y-63658996D01*
X159890094Y-63650886D01*
X160022758Y-63579976D01*
X160183177Y-63531313D01*
X160350000Y-63514883D01*
X160516822Y-63531313D01*
G37*
G36*
X163056822Y-63531313D02*
G01*
X163217241Y-63579976D01*
X163365077Y-63658995D01*
X163494659Y-63765341D01*
X163601004Y-63894922D01*
X163601005Y-63894924D01*
X163680024Y-64042758D01*
X163728687Y-64203177D01*
X163741000Y-64328196D01*
X163741000Y-65511804D01*
X163728687Y-65636823D01*
X163728686Y-65636825D01*
X163682229Y-65789975D01*
X163680024Y-65797242D01*
X163609114Y-65929906D01*
X163601004Y-65945078D01*
X163494659Y-66074659D01*
X163365078Y-66181004D01*
X163365076Y-66181005D01*
X163217242Y-66260024D01*
X163056823Y-66308687D01*
X162890000Y-66325117D01*
X162723178Y-66308687D01*
X162562759Y-66260024D01*
X162414925Y-66181005D01*
X162414923Y-66181004D01*
X162285342Y-66074659D01*
X162178997Y-65945078D01*
X162170887Y-65929906D01*
X162099977Y-65797242D01*
X162097773Y-65789975D01*
X162051315Y-65636825D01*
X162051314Y-65636823D01*
X162039001Y-65511804D01*
X162039000Y-64328197D01*
X162051313Y-64203178D01*
X162099976Y-64042759D01*
X162178995Y-63894923D01*
X162285341Y-63765341D01*
X162414922Y-63658996D01*
X162430094Y-63650886D01*
X162562758Y-63579976D01*
X162723177Y-63531313D01*
X162890000Y-63514883D01*
X163056822Y-63531313D01*
G37*
G36*
X165596822Y-63531313D02*
G01*
X165757241Y-63579976D01*
X165905077Y-63658995D01*
X166034659Y-63765341D01*
X166141004Y-63894922D01*
X166141005Y-63894924D01*
X166220024Y-64042758D01*
X166268687Y-64203177D01*
X166281000Y-64328196D01*
X166281000Y-65511804D01*
X166268687Y-65636823D01*
X166268686Y-65636825D01*
X166222229Y-65789975D01*
X166220024Y-65797242D01*
X166149114Y-65929906D01*
X166141004Y-65945078D01*
X166034659Y-66074659D01*
X165905078Y-66181004D01*
X165905076Y-66181005D01*
X165757242Y-66260024D01*
X165596823Y-66308687D01*
X165430000Y-66325117D01*
X165263178Y-66308687D01*
X165102759Y-66260024D01*
X164954925Y-66181005D01*
X164954923Y-66181004D01*
X164825342Y-66074659D01*
X164718997Y-65945078D01*
X164710887Y-65929906D01*
X164639977Y-65797242D01*
X164637773Y-65789975D01*
X164591315Y-65636825D01*
X164591314Y-65636823D01*
X164579001Y-65511804D01*
X164579000Y-64328197D01*
X164591313Y-64203178D01*
X164639976Y-64042759D01*
X164718995Y-63894923D01*
X164825341Y-63765341D01*
X164954922Y-63658996D01*
X164970094Y-63650886D01*
X165102758Y-63579976D01*
X165263177Y-63531313D01*
X165430000Y-63514883D01*
X165596822Y-63531313D01*
G37*
G36*
X170676822Y-63531313D02*
G01*
X170837241Y-63579976D01*
X170985077Y-63658995D01*
X171114659Y-63765341D01*
X171221004Y-63894922D01*
X171221005Y-63894924D01*
X171300024Y-64042758D01*
X171348687Y-64203177D01*
X171361000Y-64328196D01*
X171361000Y-65511804D01*
X171348687Y-65636823D01*
X171348686Y-65636825D01*
X171302229Y-65789975D01*
X171300024Y-65797242D01*
X171229114Y-65929906D01*
X171221004Y-65945078D01*
X171114659Y-66074659D01*
X170985078Y-66181004D01*
X170985076Y-66181005D01*
X170837242Y-66260024D01*
X170676823Y-66308687D01*
X170510000Y-66325117D01*
X170343178Y-66308687D01*
X170182759Y-66260024D01*
X170034925Y-66181005D01*
X170034923Y-66181004D01*
X169905342Y-66074659D01*
X169798997Y-65945078D01*
X169790887Y-65929906D01*
X169719977Y-65797242D01*
X169717773Y-65789975D01*
X169671315Y-65636825D01*
X169671314Y-65636823D01*
X169659001Y-65511804D01*
X169659000Y-64328197D01*
X169671313Y-64203178D01*
X169719976Y-64042759D01*
X169798995Y-63894923D01*
X169905341Y-63765341D01*
X170034922Y-63658996D01*
X170050094Y-63650886D01*
X170182758Y-63579976D01*
X170343177Y-63531313D01*
X170510000Y-63514883D01*
X170676822Y-63531313D01*
G37*
G36*
X151041000Y-66321000D02*
G01*
X149339000Y-66321000D01*
X149339000Y-63519000D01*
X151041000Y-63519000D01*
X151041000Y-66321000D01*
G37*
G36*
X142219059Y-62657860D02*
G01*
X142355732Y-62714472D01*
X142478735Y-62796660D01*
X142583340Y-62901265D01*
X142583341Y-62901267D01*
X142665529Y-63024270D01*
X142722140Y-63160941D01*
X142751000Y-63306032D01*
X142751000Y-63453968D01*
X142735615Y-63531313D01*
X142722140Y-63599059D01*
X142665528Y-63735732D01*
X142583340Y-63858735D01*
X142478735Y-63963340D01*
X142355732Y-64045528D01*
X142355731Y-64045529D01*
X142355730Y-64045529D01*
X142219059Y-64102140D01*
X142073968Y-64131000D01*
X141926032Y-64131000D01*
X141780941Y-64102140D01*
X141644270Y-64045529D01*
X141644269Y-64045529D01*
X141644268Y-64045528D01*
X141521265Y-63963340D01*
X141416660Y-63858735D01*
X141334472Y-63735732D01*
X141277860Y-63599059D01*
X141264385Y-63531313D01*
X141249000Y-63453968D01*
X141249000Y-63306032D01*
X141277860Y-63160941D01*
X141334471Y-63024270D01*
X141416659Y-62901267D01*
X141416660Y-62901265D01*
X141521265Y-62796660D01*
X141644268Y-62714472D01*
X141780941Y-62657860D01*
X141926032Y-62629000D01*
X142073968Y-62629000D01*
X142219059Y-62657860D01*
G37*
G36*
X142316000Y-56646000D02*
G01*
X140864000Y-56646000D01*
X140864000Y-55194000D01*
X142316000Y-55194000D01*
X142316000Y-56646000D01*
G37*
G36*
X180054903Y-53947075D02*
G01*
X180282571Y-54041378D01*
X180487466Y-54178285D01*
X180661715Y-54352534D01*
X180798622Y-54557429D01*
X180798623Y-54557431D01*
X180817142Y-54602140D01*
X180892925Y-54785097D01*
X180941000Y-55026787D01*
X180941000Y-55273213D01*
X180892925Y-55514903D01*
X180798622Y-55742571D01*
X180661715Y-55947466D01*
X180487466Y-56121715D01*
X180282571Y-56258622D01*
X180282570Y-56258623D01*
X180282569Y-56258623D01*
X180054903Y-56352925D01*
X179813214Y-56401000D01*
X179566786Y-56401000D01*
X179325097Y-56352925D01*
X179097431Y-56258623D01*
X179097430Y-56258623D01*
X179097429Y-56258622D01*
X178892534Y-56121715D01*
X178718285Y-55947466D01*
X178581378Y-55742571D01*
X178487075Y-55514903D01*
X178439000Y-55273213D01*
X178439000Y-55026787D01*
X178487075Y-54785097D01*
X178562858Y-54602140D01*
X178581377Y-54557431D01*
X178581378Y-54557429D01*
X178718285Y-54352534D01*
X178892534Y-54178285D01*
X179097429Y-54041378D01*
X179325097Y-53947075D01*
X179566786Y-53899000D01*
X179813214Y-53899000D01*
X180054903Y-53947075D01*
G37*
G36*
X166671000Y-55871000D02*
G01*
X164769000Y-55871000D01*
X164769000Y-53969000D01*
X166671000Y-53969000D01*
X166671000Y-55871000D01*
G37*
G36*
X155837395Y-54005546D02*
G01*
X156010466Y-54077234D01*
X156010467Y-54077235D01*
X156166227Y-54181310D01*
X156298690Y-54313773D01*
X156344809Y-54382796D01*
X156402766Y-54469534D01*
X156474454Y-54642605D01*
X156511000Y-54826333D01*
X156511000Y-55013667D01*
X156474454Y-55197395D01*
X156402766Y-55370466D01*
X156402765Y-55370467D01*
X156298690Y-55526227D01*
X156166227Y-55658690D01*
X156087818Y-55711081D01*
X156010466Y-55762766D01*
X155837395Y-55834454D01*
X155653667Y-55871000D01*
X155466333Y-55871000D01*
X155282605Y-55834454D01*
X155109534Y-55762766D01*
X155032182Y-55711081D01*
X154953773Y-55658690D01*
X154821310Y-55526227D01*
X154717235Y-55370467D01*
X154717234Y-55370466D01*
X154645546Y-55197395D01*
X154609000Y-55013667D01*
X154609000Y-54826333D01*
X154645546Y-54642605D01*
X154717234Y-54469534D01*
X154775191Y-54382796D01*
X154821310Y-54313773D01*
X154953773Y-54181310D01*
X155109533Y-54077235D01*
X155109534Y-54077234D01*
X155282605Y-54005546D01*
X155466333Y-53969000D01*
X155653667Y-53969000D01*
X155837395Y-54005546D01*
G37*
G36*
X153971000Y-55871000D02*
G01*
X152069000Y-55871000D01*
X152069000Y-53969000D01*
X153971000Y-53969000D01*
X153971000Y-55871000D01*
G37*
G36*
X147621000Y-55871000D02*
G01*
X145719000Y-55871000D01*
X145719000Y-53969000D01*
X147621000Y-53969000D01*
X147621000Y-55871000D01*
G37*
G36*
X149487395Y-54005546D02*
G01*
X149660466Y-54077234D01*
X149660467Y-54077235D01*
X149816227Y-54181310D01*
X149948690Y-54313773D01*
X149994809Y-54382796D01*
X150052766Y-54469534D01*
X150124454Y-54642605D01*
X150161000Y-54826333D01*
X150161000Y-55013667D01*
X150124454Y-55197395D01*
X150052766Y-55370466D01*
X150052765Y-55370467D01*
X149948690Y-55526227D01*
X149816227Y-55658690D01*
X149737818Y-55711081D01*
X149660466Y-55762766D01*
X149487395Y-55834454D01*
X149303667Y-55871000D01*
X149116333Y-55871000D01*
X148932605Y-55834454D01*
X148759534Y-55762766D01*
X148682182Y-55711081D01*
X148603773Y-55658690D01*
X148471310Y-55526227D01*
X148367235Y-55370467D01*
X148367234Y-55370466D01*
X148295546Y-55197395D01*
X148259000Y-55013667D01*
X148259000Y-54826333D01*
X148295546Y-54642605D01*
X148367234Y-54469534D01*
X148425191Y-54382796D01*
X148471310Y-54313773D01*
X148603773Y-54181310D01*
X148759533Y-54077235D01*
X148759534Y-54077234D01*
X148932605Y-54005546D01*
X149116333Y-53969000D01*
X149303667Y-53969000D01*
X149487395Y-54005546D01*
G37*
G36*
X174887395Y-54005546D02*
G01*
X175060466Y-54077234D01*
X175060467Y-54077235D01*
X175216227Y-54181310D01*
X175348690Y-54313773D01*
X175394809Y-54382796D01*
X175452766Y-54469534D01*
X175524454Y-54642605D01*
X175561000Y-54826333D01*
X175561000Y-55013667D01*
X175524454Y-55197395D01*
X175452766Y-55370466D01*
X175452765Y-55370467D01*
X175348690Y-55526227D01*
X175216227Y-55658690D01*
X175137818Y-55711081D01*
X175060466Y-55762766D01*
X174887395Y-55834454D01*
X174703667Y-55871000D01*
X174516333Y-55871000D01*
X174332605Y-55834454D01*
X174159534Y-55762766D01*
X174082182Y-55711081D01*
X174003773Y-55658690D01*
X173871310Y-55526227D01*
X173767235Y-55370467D01*
X173767234Y-55370466D01*
X173695546Y-55197395D01*
X173659000Y-55013667D01*
X173659000Y-54826333D01*
X173695546Y-54642605D01*
X173767234Y-54469534D01*
X173825191Y-54382796D01*
X173871310Y-54313773D01*
X174003773Y-54181310D01*
X174159533Y-54077235D01*
X174159534Y-54077234D01*
X174332605Y-54005546D01*
X174516333Y-53969000D01*
X174703667Y-53969000D01*
X174887395Y-54005546D01*
G37*
G36*
X173021000Y-55871000D02*
G01*
X171119000Y-55871000D01*
X171119000Y-53969000D01*
X173021000Y-53969000D01*
X173021000Y-55871000D01*
G37*
G36*
X160321000Y-55871000D02*
G01*
X158419000Y-55871000D01*
X158419000Y-53969000D01*
X160321000Y-53969000D01*
X160321000Y-55871000D01*
G37*
G36*
X162187395Y-54005546D02*
G01*
X162360466Y-54077234D01*
X162360467Y-54077235D01*
X162516227Y-54181310D01*
X162648690Y-54313773D01*
X162694809Y-54382796D01*
X162752766Y-54469534D01*
X162824454Y-54642605D01*
X162861000Y-54826333D01*
X162861000Y-55013667D01*
X162824454Y-55197395D01*
X162752766Y-55370466D01*
X162752765Y-55370467D01*
X162648690Y-55526227D01*
X162516227Y-55658690D01*
X162437818Y-55711081D01*
X162360466Y-55762766D01*
X162187395Y-55834454D01*
X162003667Y-55871000D01*
X161816333Y-55871000D01*
X161632605Y-55834454D01*
X161459534Y-55762766D01*
X161382182Y-55711081D01*
X161303773Y-55658690D01*
X161171310Y-55526227D01*
X161067235Y-55370467D01*
X161067234Y-55370466D01*
X160995546Y-55197395D01*
X160959000Y-55013667D01*
X160959000Y-54826333D01*
X160995546Y-54642605D01*
X161067234Y-54469534D01*
X161125191Y-54382796D01*
X161171310Y-54313773D01*
X161303773Y-54181310D01*
X161459533Y-54077235D01*
X161459534Y-54077234D01*
X161632605Y-54005546D01*
X161816333Y-53969000D01*
X162003667Y-53969000D01*
X162187395Y-54005546D01*
G37*
G36*
X168537395Y-54005546D02*
G01*
X168710466Y-54077234D01*
X168710467Y-54077235D01*
X168866227Y-54181310D01*
X168998690Y-54313773D01*
X169044809Y-54382796D01*
X169102766Y-54469534D01*
X169174454Y-54642605D01*
X169211000Y-54826333D01*
X169211000Y-55013667D01*
X169174454Y-55197395D01*
X169102766Y-55370466D01*
X169102765Y-55370467D01*
X168998690Y-55526227D01*
X168866227Y-55658690D01*
X168787818Y-55711081D01*
X168710466Y-55762766D01*
X168537395Y-55834454D01*
X168353667Y-55871000D01*
X168166333Y-55871000D01*
X167982605Y-55834454D01*
X167809534Y-55762766D01*
X167732182Y-55711081D01*
X167653773Y-55658690D01*
X167521310Y-55526227D01*
X167417235Y-55370467D01*
X167417234Y-55370466D01*
X167345546Y-55197395D01*
X167309000Y-55013667D01*
X167309000Y-54826333D01*
X167345546Y-54642605D01*
X167417234Y-54469534D01*
X167475191Y-54382796D01*
X167521310Y-54313773D01*
X167653773Y-54181310D01*
X167809533Y-54077235D01*
X167809534Y-54077234D01*
X167982605Y-54005546D01*
X168166333Y-53969000D01*
X168353667Y-53969000D01*
X168537395Y-54005546D01*
G37*
G36*
X141801766Y-53221899D02*
G01*
X141933888Y-53276626D01*
X141933890Y-53276627D01*
X142052798Y-53356079D01*
X142153921Y-53457202D01*
X142233373Y-53576110D01*
X142233374Y-53576112D01*
X142288101Y-53708234D01*
X142316000Y-53848494D01*
X142316000Y-53991506D01*
X142288101Y-54131766D01*
X142233374Y-54263888D01*
X142233373Y-54263890D01*
X142153921Y-54382798D01*
X142052798Y-54483921D01*
X141933890Y-54563373D01*
X141933889Y-54563374D01*
X141933888Y-54563374D01*
X141801766Y-54618101D01*
X141661506Y-54646000D01*
X141518494Y-54646000D01*
X141378234Y-54618101D01*
X141246112Y-54563374D01*
X141246111Y-54563374D01*
X141246110Y-54563373D01*
X141127202Y-54483921D01*
X141026079Y-54382798D01*
X140946627Y-54263890D01*
X140946626Y-54263888D01*
X140891899Y-54131766D01*
X140864000Y-53991506D01*
X140864000Y-53848494D01*
X140891899Y-53708234D01*
X140946626Y-53576112D01*
X140946627Y-53576110D01*
X141026079Y-53457202D01*
X141127202Y-53356079D01*
X141246110Y-53276627D01*
X141246112Y-53276626D01*
X141378234Y-53221899D01*
X141518494Y-53194000D01*
X141661506Y-53194000D01*
X141801766Y-53221899D01*
G37*
G36*
X122759059Y-53157860D02*
G01*
X122846309Y-53194000D01*
X122895732Y-53214472D01*
X123018735Y-53296660D01*
X123123340Y-53401265D01*
X123123341Y-53401267D01*
X123205529Y-53524270D01*
X123262140Y-53660941D01*
X123291000Y-53806032D01*
X123291000Y-53953968D01*
X123262140Y-54099059D01*
X123228071Y-54181310D01*
X123205528Y-54235732D01*
X123123340Y-54358735D01*
X123018735Y-54463340D01*
X122895732Y-54545528D01*
X122895731Y-54545529D01*
X122895730Y-54545529D01*
X122759059Y-54602140D01*
X122613968Y-54631000D01*
X122466032Y-54631000D01*
X122320941Y-54602140D01*
X122184270Y-54545529D01*
X122184269Y-54545529D01*
X122184268Y-54545528D01*
X122061265Y-54463340D01*
X121956660Y-54358735D01*
X121874472Y-54235732D01*
X121851930Y-54181310D01*
X121817860Y-54099059D01*
X121789000Y-53953968D01*
X121789000Y-53806032D01*
X121817860Y-53660941D01*
X121874471Y-53524270D01*
X121956659Y-53401267D01*
X121956660Y-53401265D01*
X122061265Y-53296660D01*
X122184268Y-53214472D01*
X122233692Y-53194000D01*
X122320941Y-53157860D01*
X122466032Y-53129000D01*
X122613968Y-53129000D01*
X122759059Y-53157860D01*
G37*
G36*
X130379059Y-53157860D02*
G01*
X130466309Y-53194000D01*
X130515732Y-53214472D01*
X130638735Y-53296660D01*
X130743340Y-53401265D01*
X130743341Y-53401267D01*
X130825529Y-53524270D01*
X130882140Y-53660941D01*
X130911000Y-53806032D01*
X130911000Y-53953968D01*
X130882140Y-54099059D01*
X130848071Y-54181310D01*
X130825528Y-54235732D01*
X130743340Y-54358735D01*
X130638735Y-54463340D01*
X130515732Y-54545528D01*
X130515731Y-54545529D01*
X130515730Y-54545529D01*
X130379059Y-54602140D01*
X130233968Y-54631000D01*
X130086032Y-54631000D01*
X129940941Y-54602140D01*
X129804270Y-54545529D01*
X129804269Y-54545529D01*
X129804268Y-54545528D01*
X129681265Y-54463340D01*
X129576660Y-54358735D01*
X129494472Y-54235732D01*
X129471930Y-54181310D01*
X129437860Y-54099059D01*
X129409000Y-53953968D01*
X129409000Y-53806032D01*
X129437860Y-53660941D01*
X129494471Y-53524270D01*
X129576659Y-53401267D01*
X129576660Y-53401265D01*
X129681265Y-53296660D01*
X129804268Y-53214472D01*
X129853692Y-53194000D01*
X129940941Y-53157860D01*
X130086032Y-53129000D01*
X130233968Y-53129000D01*
X130379059Y-53157860D01*
G37*
M02*
